# xmcd CD database file
#
# Track frame offsets:
#	150
#	23271
#	44465
#	72748
#	88912
#	99829
#	113475
#	136618
#	169272
#	181308
#	191247
#	202709
#	217637
#	236250
#	248751
#
# Disc length: 3474 seconds
#
# Revision: 3
# Processed by: cddbd v1.4PL0 Copyright (c) Steve Scherf et al.
# Submitted via: CDex 1.50beta8
#
DISCID=b90d900f
DTITLE=Various Artist - Essential Blues - Disc 2
DYEAR=1995
DGENRE=Blues
TTITLE0=Master Charge_Albert Collins
TTITLE1=Mother Nature_Koko Taylor
TTITLE2=Walking The Backstreets And Crying_Little Milton
TTITLE3=Give Me Back My Wig_Hound Dog Taylor
TTITLE4=Prisoner Of Love_James Brown
TTITLE5=You Upset Me Baby_B.B. King
TTITLE6=Let's Straighten It Out_Latimore
TTITLE7=I'll Play The Blues For You_Albert King
TTITLE8=Must Have Been The Devil_Otis Spann
TTITLE9=Dimples_John Lee Hooker
TTITLE10=Rainin' In My Heart_Slim Harpo
TTITLE11=The Getaway_Fenton Robinson
TTITLE12=Too Much Sugar For A Dime_Katie Webster
TTITLE13=Bright Lights, Big City_Jimmy Reed
TTITLE14=Drivin' Wheel_Junior Parker
EXTD=Blues Gods - House of Blues YEAR: 1995
EXTT0=
EXTT1=
EXTT2=
EXTT3=
EXTT4=
EXTT5=
EXTT6=
EXTT7=
EXTT8=
EXTT9=
EXTT10=
EXTT11=
EXTT12=
EXTT13=
EXTT14=
PLAYORDER=
